<svg width="64" height="64" viewBox="0 0 64 64" fill="none" xmlns="http://www.w3.org/2000/svg">
<path d="M53.7 12.4999L34.2 2.94994C32.815 2.26994 31.19 2.26994 29.8 2.94994L10.3 12.4999C8.585 13.3399 7.5 15.0799 7.5 16.9899V30.6549C7.5 44.1849 17.595 56.2649 30.21 61.2199C31.36 61.6699 32.64 61.6699 33.79 61.2199C46.405 56.2649 56.5 44.1849 56.5 30.6549V16.9899C56.5 15.0799 55.415 13.3399 53.7 12.4999Z" fill="#FBF9F3"/>
<path d="M32 63.065C31.21 63.065 30.415 62.915 29.66 62.62C15.73 57.14 6 44 6 30.655V16.99C6 14.525 7.43 12.235 9.64 11.15L29.14 1.59998C30.93 0.724976 33.07 0.724976 34.86 1.59998L54.36 11.15C56.57 12.235 58 14.525 58 16.99V30.655C58 44 48.27 57.14 34.34 62.62C33.585 62.915 32.79 63.065 32 63.065ZM32 3.93998C31.47 3.93998 30.94 4.05998 30.46 4.29498L10.96 13.845C9.77 14.43 9 15.665 9 16.99V30.655C9 42.795 17.945 54.79 30.76 59.825C31.56 60.14 32.44 60.14 33.24 59.825C46.055 54.79 55 42.795 55 30.655V16.99C55 15.665 54.23 14.43 53.04 13.845L33.54 4.29498C33.06 4.05998 32.53 3.93998 32 3.93998Z" fill="#479FA4"/>
<path d="M29.5007 41.26C29.1157 41.26 28.7307 41.115 28.4407 40.82L20.9407 33.32C20.3557 32.735 20.3557 31.785 20.9407 31.2C21.5257 30.615 22.4757 30.615 23.0607 31.2L29.5007 37.64L43.4407 23.7C44.0257 23.115 44.9757 23.115 45.5607 23.7C46.1457 24.285 46.1457 25.235 45.5607 25.82L30.5607 40.82C30.2707 41.115 29.8857 41.26 29.5007 41.26Z" fill="#8DB8E3"/>
</svg>
